<svg height="100%" stroke-miterlimit="10" style="fill-rule:nonzero;clip-rule:evenodd;stroke-linecap:round;stroke-linejoin:round;" version="1.1" viewBox="0 0 1024 1024" width="100%" xml:space="preserve" xmlns="http://www.w3.org/2000/svg" >
<defs/>
<g id="Layer-1">
<path d="M246.294 112.15L247.949 913.506L846.483 912.678L847.311 110.494L246.294 112.15Z" fill="#eed3d9" fill-rule="nonzero" opacity="1" stroke="#f5e8dd" stroke-linecap="butt" stroke-linejoin="round" stroke-width="10" />

<path d="M366.182 522.897C366.182 528.138 362.133 533.967 363.703 540.247C366.563 551.687 375.616 553.93 384.771 547.063C397.989 537.15 405.448 524.659 415.135 511.743C417.682 508.346 418.304 503.799 420.712 500.589C427.137 492.021 432.321 480.177 434.964 469.606C436.674 462.766 439.427 456.09 441.16 449.157C441.367 448.331 440.928 446.679 441.78 446.679C442.663 446.679 440.695 455.202 440.541 455.974C439.355 461.902 440.145 468.091 438.682 473.944C434.159 492.036 436.758 514.58 441.16 532.192C441.568 533.824 442.229 548.922 444.259 548.922C445.313 548.922 454.307 529.797 454.793 527.854C455.751 524.023 458.736 520.756 459.75 516.7C464.538 497.55 472.37 477.491 482.677 460.311C487.676 451.981 506.729 439.214 516.759 441.722C521.175 442.826 526.059 451.835 522.955 455.974C521.56 457.833 516.298 459.504 514.28 460.311" fill="none" opacity="1" stroke="#4f646f" stroke-linecap="round" stroke-linejoin="round" stroke-width="10" />
<path d="M531.583 491.088C523.804 483.309 506.094 493.183 500.896 500.113C489.271 515.613 493.773 539.108 508.568 550.204C524.568 562.204 543.994 544.787 552.793 533.056C556.787 527.73 557.01 515.491 555.951 509.139C552.912 490.901 522.483 503.198 535.644 516.359C536.826 517.54 538.733 519.143 540.608 519.518C563.486 524.093 599.24 494.764 608.75 475.744C613.127 466.991 614.854 458.075 616.422 448.668C616.676 447.144 618.852 442.056 616.422 441.448C614.051 440.855 611.415 446.046 610.555 447.766C607.207 454.462 602.591 463.353 601.53 470.781C598.256 493.699 589.517 539.954 611.007 556.071C626.524 567.709 652.645 547.869 658.39 533.507C660.666 527.816 661.213 521.369 662.903 515.456C664.435 510.094 665.195 492.789 658.39 491.088C650.112 489.018 646.552 507.512 645.754 512.297C643.36 526.661 650.739 543.112 662 551.558C664.552 553.472 668.199 553.108 671.026 553.814C676.362 555.149 685.864 557.903 691.333 555.168" fill="none" opacity="1" stroke="#4f646f" stroke-linecap="round" stroke-linejoin="round" stroke-width="10"/>
<path d="M592.82 476.877C609.684 476.877 624.908 472.873 641.106 470.559C648.114 469.558 655.342 465.534 662.316 463.79" fill="none" opacity="1" stroke="#4f646f" stroke-linecap="round" stroke-linejoin="round" stroke-width="10" />
<path d="M270.593 212.115L288.383 205.831C305.639 199.736 319.162 186.086 325.096 168.774L332.909 145.983L337.503 164.551C342.225 183.639 355.919 199.248 374.23 206.414L392.046 213.387L378.854 216.159C358.86 220.36 342.386 234.463 335.152 253.57L328.458 271.252L322.468 252.476C316.901 235.021 302.998 221.491 285.398 216.399L270.593 212.115Z" fill="#dee7e7" fill-rule="nonzero" opacity="1" stroke="#dee7e7" stroke-linecap="butt" stroke-linejoin="round" stroke-width="5.37421"/>
</g>
</svg>
